HIERARCHY
ROOT Hips
{
 OFFSET 0.000000 0.000000 0.000000
 CHANNELS 6 Xposition Yposition Zposition Yrotation Xrotation Zrotation
 JOINT Chest
 {
  OFFSET 0.000000 14.067100 -0.020500
  CHANNELS 3 Yrotation Xrotation Zrotation
  JOINT Chest2
  {
   OFFSET 0.000000 9.717300 0.041800
   CHANNELS 3 Yrotation Xrotation Zrotation
   JOINT Chest3
   {
    OFFSET 0.000000 9.672600 0.000000
    CHANNELS 3 Yrotation Xrotation Zrotation
    JOINT Chest4
    {
     OFFSET 0.000000 9.662700 0.000000
     CHANNELS 3 Yrotation Xrotation Zrotation
     JOINT Neck
     {
      OFFSET 0.000000 14.815200 0.000000
      CHANNELS 3 Yrotation Xrotation Zrotation
      JOINT Head
      {
       OFFSET 0.000000 9.056800 0.088400
       CHANNELS 3 Yrotation Xrotation Zrotation
       End Site
       {
        OFFSET 0.000000 17.018200 0.046700
       }
      }
     }
     JOINT RightCollar
     {
      OFFSET -3.269500 9.872600 0.000000
      CHANNELS 3 Yrotation Xrotation Zrotation
      JOINT RightShoulder
      {
       OFFSET -15.850600 0.000000 0.000000
       CHANNELS 3 Yrotation Xrotation Zrotation
       JOINT RightElbow
       {
        OFFSET 0.000000 -29.117400 0.000000
        CHANNELS 3 Yrotation Xrotation Zrotation
        JOINT RightWrist
        {
         OFFSET 0.000000 -23.969300 0.014600
         CHANNELS 3 Yrotation Xrotation Zrotation
         End Site
         {
          OFFSET 0.000000 -18.039300 0.000000
         }
        }
       }
      }
     }
     JOINT LeftCollar
     {
      OFFSET 3.269500 9.872600 0.000000
      CHANNELS 3 Yrotation Xrotation Zrotation
      JOINT LeftShoulder
      {
       OFFSET 15.850600 0.000000 0.000000
       CHANNELS 3 Yrotation Xrotation Zrotation
       JOINT LeftElbow
       {
        OFFSET 0.000000 -29.117400 0.000000
        CHANNELS 3 Yrotation Xrotation Zrotation
        JOINT LeftWrist
        {
         OFFSET 0.000000 -23.969300 0.014600
         CHANNELS 3 Yrotation Xrotation Zrotation
         End Site
         {
          OFFSET 0.000000 -18.039300 0.000000
         }
        }
       }
      }
     }
    }
   }
  }
 }
 JOINT RightHip
 {
  OFFSET -11.600400 0.101300 0.010200
  CHANNELS 3 Yrotation Xrotation Zrotation
  JOINT RightKnee
  {
   OFFSET 0.000000 -45.913300 -0.001400
   CHANNELS 3 Yrotation Xrotation Zrotation
   JOINT RightAnkle
   {
    OFFSET 0.000000 -46.966900 0.018600
    CHANNELS 3 Yrotation Xrotation Zrotation
    JOINT RightToe
    {
     OFFSET 0.000000 -10.064300 17.850900
     CHANNELS 3 Yrotation Xrotation Zrotation
     End Site
     {
      OFFSET 0.000000 -1.607600 6.976100
     }
    }
   }
  }
 }
 JOINT LeftHip
 {
  OFFSET 11.600400 0.101300 0.010200
  CHANNELS 3 Yrotation Xrotation Zrotation
  JOINT LeftKnee
  {
   OFFSET 0.000000 -45.913300 -0.001400
   CHANNELS 3 Yrotation Xrotation Zrotation
   JOINT LeftAnkle
   {
    OFFSET 0.000000 -46.966900 0.018600
    CHANNELS 3 Yrotation Xrotation Zrotation
    JOINT LeftToe
    {
     OFFSET 0.000000 -10.064300 17.850900
     CHANNELS 3 Yrotation Xrotation Zrotation
     End Site
     {
      OFFSET 0.000000 -1.607600 6.976100
     }
    }
   }
  }
 }
}
MOTION
Frames: 5
Frame Time: 0.008333
-268.505780 61.414217 -9.367293 177.372748 -28.433933 -2.221388 -2.084891 10.164237 1.947760 -0.912359 5.847981 1.692206 -1.122479 7.272736 2.102788 -0.918445 5.815024 1.691793 -0.502639 20.662257 -2.743238 -0.114207 2.598710 -4.838425 0.866026 7.475750 -10.635979 -15.315427 -24.100757 -11.914547 -42.924884 -55.826652 47.226223 -7.402844 -13.642857 -18.934582 -0.428498 1.503076 -0.721711 18.254022 -21.100331 4.376758 32.485818 -60.136949 -48.722228 8.802371 -3.703702 26.109633 25.021977 -52.418089 -32.455286 -108.984540 64.183739 -97.437935 5.542887 -4.445274 2.462655 0.358821 -0.859134 0.119097 -6.608906 -56.737410 11.254141 98.201037 82.285153 95.184481 -6.953986 -8.347096 0.687649 0.517918 0.785964 0.354926
-268.508606 61.432241 -9.366532 177.348431 -28.314303 -2.196598 -2.037308 10.208027 1.949829 -0.908465 5.816726 1.686310 -1.110051 7.274838 2.096052 -0.908443 5.816775 1.686286 -0.520298 20.629076 -2.780721 -0.134325 2.537330 -4.901763 1.023576 7.331777 -10.599428 -15.353787 -23.973068 -11.994500 -42.782551 -56.068495 47.147204 -7.340455 -13.612198 -18.981218 -0.371452 1.411831 -0.752432 18.100898 -21.140876 4.362612 31.778810 -60.611647 -48.099500 8.714496 -3.610328 26.106226 24.983321 -52.507585 -32.539107 -108.943639 64.257033 -97.371109 5.576230 -4.497650 2.402061 0.339471 -0.834212 0.120840 -6.555083 -56.849308 11.258314 98.150259 82.302028 95.081310 -6.909801 -8.319574 0.782917 0.463746 0.755789 0.309900
-268.506236 61.450509 -9.365560 177.334998 -28.193628 -2.197930 -2.005740 10.221814 1.973094 -0.902047 5.818508 1.679769 -1.102096 7.277001 2.088017 -0.902057 5.818547 1.679757 -0.536169 20.590680 -2.823091 -0.149690 2.466434 -4.974730 1.224479 7.163695 -10.548630 -15.408899 -23.812756 -12.106166 -42.639917 -56.330110 47.075918 -7.268070 -13.588675 -19.050038 -0.302137 1.306802 -0.794711 17.956794 -21.168749 4.366059 31.051958 -61.080330 -47.463151 8.622411 -3.513421 26.096285 24.936778 -52.613923 -32.596752 -108.927224 64.305689 -97.320720 5.594386 -4.521288 2.329847 0.341518 -0.835685 0.141209 -6.553279 -56.960245 11.292436 98.057333 82.314039 94.984302 -6.909199 -8.300760 0.802191 0.458902 0.736408 0.296612
-268.510825 61.468689 -9.364853 177.311262 -28.070782 -2.166345 -1.972701 10.235502 1.968629 -0.897736 5.820526 1.672616 -1.096801 7.279520 2.079141 -0.897756 5.820525 1.672606 -0.552117 20.545893 -2.870586 -0.163327 2.383845 -5.057102 1.464470 6.969727 -10.481887 -15.482454 -23.611602 -12.243797 -42.498860 -56.615888 47.016726 -7.184531 -13.574339 -19.144354 -0.227676 1.184945 -0.848203 17.820221 -21.182022 4.390494 30.323645 -61.537029 -46.832157 8.526340 -3.409662 26.088130 24.951013 -52.714186 -32.700966 -108.885589 64.360139 -97.288050 5.635151 -4.520263 2.345209 0.308975 -0.847101 0.113171 -6.506252 -57.074843 11.272099 97.946304 82.316120 94.868757 -6.920217 -8.274069 0.817791 0.452113 0.709386 0.286093
-268.513535 61.487663 -9.364395 177.293130 -27.947264 -2.145591 -1.943402 10.251540 1.971068 -0.892154 5.822441 1.664673 -1.089926 7.281911 2.069225 -0.892167 5.822423 1.664615 -0.571468 20.497391 -2.921054 -0.181936 2.294285 -5.143848 1.730295 6.748881 -10.393105 -15.575264 -23.364908 -12.395508 -42.353180 -56.924498 46.968202 -7.096256 -13.572477 -19.260564 -0.159574 1.050211 -0.904894 17.686685 -21.183195 4.430432 29.583156 -61.980703 -46.196342 8.431454 -3.299720 26.084416 24.995736 -52.818832 -32.800497 -108.871319 64.382191 -97.265249 5.641139 -4.503466 2.335081 0.310348 -0.871106 0.111692 -6.479132 -57.189079 11.264453 97.840764 82.308137 94.749267 -6.907937 -8.251179 0.849874 0.426044 0.686020 0.264851
